<svg width="209" height="28" viewBox="0 0 209 28" fill="none" xmlns="http://www.w3.org/2000/svg"><g clip-path="url(#clip0_7869_24215)"><mask id="mask0_7869_24215" style="mask-type:luminance" maskUnits="userSpaceOnUse" x="0" y="0" width="38" height="28"><path d="M37.7127 0.811523H0V27.9998H37.7127V0.811523Z" fill="white"></path></mask><g mask="url(#mask0_7869_24215)"><path d="M32.3271 0.811523C31.0244 0.811523 29.83 1.97573 28.8984 3.91338C30.9926 6.40189 32.3271 10.167 32.3271 14.3804C32.3271 18.5938 30.9926 22.3589 28.8984 24.8474C29.83 26.7851 31.0244 27.9493 32.3271 27.9493C35.3026 27.9493 37.7146 21.8742 37.7146 14.3804C37.7146 6.88661 35.3026 0.811523 32.3271 0.811523Z" fill="url(#paint0_radial_7869_24215)"></path><path d="M28.8958 3.91338C27.2661 1.97574 25.1758 0.811523 22.8963 0.811523C21.4944 0.811523 20.1642 1.25224 18.9688 2.04196C23.6651 4.16142 26.9369 8.91107 26.9369 14.4309C26.9369 19.9507 23.7071 24.6385 19.0598 26.778C20.2316 27.5303 21.53 27.9493 22.8963 27.9493C25.1758 27.9493 27.2661 26.7851 28.8958 24.8474C27.6992 22.3589 26.9369 18.5938 26.9369 14.3804C26.9369 10.167 27.6992 6.40189 28.8958 3.91338Z" fill="#05E5AD"></path><path d="M28.8964 3.91309C27.6998 6.4016 26.9375 10.1667 26.9375 14.3801C26.9375 18.5935 27.6998 22.3586 28.8964 24.8471C30.9906 22.3586 32.325 18.5935 32.325 14.3801C32.325 10.1667 30.9906 6.4016 28.8964 3.91309Z" fill="#7962FE"></path><path d="M13.4688 14.3807C13.4688 8.9043 15.7235 4.18614 18.9695 2.04226C17.2897 1.28457 15.4283 0.862305 13.4688 0.862305C6.03026 0.862312 0 6.93738 0 14.4312C0 21.925 6.03026 28.0001 13.4688 28.0001C15.4639 28.0001 17.3576 27.5626 19.0606 26.7783C15.7655 24.6632 13.4688 19.9082 13.4688 14.3807Z" fill="url(#paint1_radial_7869_24215)"></path><path d="M26.9376 14.4309C26.9376 8.91111 23.6657 4.16145 18.9694 2.04199C15.7234 4.18588 13.4688 8.90403 13.4688 14.3805C13.4688 19.8569 15.7654 24.6629 19.0605 26.7781C23.7077 24.6385 26.9376 19.9149 26.9376 14.4309Z" fill="#7962FE"></path></g><mask id="mask1_7869_24215" style="mask-type:luminance" maskUnits="userSpaceOnUse" x="49" y="0" width="160" height="28"><path d="M208.807 0H49.25V28H208.807V0Z" fill="white"></path></mask><g mask="url(#mask1_7869_24215)"><path d="M59.3084 8.19044C60.9455 8.19044 62.6603 8.57275 64.031 9.37238V14.5901C62.7356 13.6747 61.3654 13.2197 59.9546 13.2197C57.0201 13.2197 54.8501 15.2389 54.8501 18.0954C54.8501 20.952 57.0226 22.9712 59.9546 22.9712C61.4407 22.9712 62.8866 22.4005 64.0686 21.5228V26.7808C62.5444 27.6558 60.8672 28.0004 59.2306 28.0004C53.4393 28.0004 49.25 23.9997 49.25 18.0954C49.25 12.1912 53.4017 8.19044 59.3084 8.19044Z" fill="#7962FE"></path><path d="M75.8188 8.19043C81.6101 8.19043 86.0282 12.4954 86.0282 18.0954C86.0282 23.6954 81.6101 28.0005 75.8188 28.0005C70.0275 28.0005 65.6094 23.6955 65.6094 18.0954C65.6094 12.4954 70.0275 8.19043 75.8188 8.19043ZM75.8188 22.9335C78.4086 22.9335 80.5439 20.8012 80.5439 18.0954C80.5439 15.3896 78.4116 13.2574 75.8188 13.2574C73.2259 13.2574 71.0936 15.3897 71.0936 18.0954C71.0936 20.8012 73.2259 22.9335 75.8188 22.9335Z" fill="#7962FE"></path><path d="M107.472 0.836914V27.5043H101.947V24.9896C100.614 26.9335 98.3284 27.9619 95.8515 27.9619C90.8223 27.9619 86.9375 23.6946 86.9375 18.0946C86.9375 12.4946 90.8223 8.22732 95.8515 8.22732C98.3284 8.22732 100.614 9.18038 101.947 11.1215V0.836914H107.472ZM97.2999 22.9704C100.006 22.9704 102.138 20.7977 102.138 18.0946C102.138 15.3915 100.006 13.2188 97.2999 13.2188C94.5942 13.2188 92.4619 15.3916 92.4619 18.0946C92.4619 20.7976 94.5942 22.9704 97.2999 22.9704Z" fill="#7962FE"></path><path d="M200.621 8.6852V27.5045H195.096V24.9898C193.763 26.9337 191.477 27.9621 189 27.9621C183.971 27.9621 180.086 23.6949 180.086 18.0948C180.086 12.4948 183.971 8.22754 189 8.22754C191.477 8.22754 193.763 9.18059 195.096 11.1217V8.68254H200.621V8.6852ZM190.449 22.9706C193.155 22.9706 195.287 20.7979 195.287 18.0948C195.287 15.3917 193.155 13.2191 190.449 13.2191C187.743 13.2191 185.611 15.3918 185.611 18.0948C185.611 20.7979 187.743 22.9706 190.449 22.9706Z" fill="#7962FE"></path><path d="M113.231 6.47475C111.403 6.47475 109.992 4.95092 109.992 3.23592C109.992 1.52091 111.4 -0.00292969 113.231 -0.00292969C115.062 -0.00292969 116.47 1.52091 116.47 3.23592C116.47 4.95092 115.062 6.47475 113.231 6.47475ZM110.45 27.5044V8.68515H116.012V27.5044H110.45Z" fill="#7962FE"></path><path d="M131.21 8.68528H136.772V27.5045H131.21V25.1057C130.106 26.8961 128.2 27.9999 125.723 27.9999C121.418 27.9999 118.828 25.0653 118.828 20.3053V8.68528H124.391V18.9699C124.391 21.4468 125.572 22.8926 127.704 22.8926C129.837 22.8926 131.21 21.3311 131.21 18.6253V8.68262V8.68528Z" fill="#7962FE"></path><path d="M145.531 27.5051H139.969V8.68582H145.531V11.047C146.56 9.33199 148.35 8.19043 150.827 8.19043C153.304 8.19043 155.323 9.37237 156.351 11.467C157.533 9.48546 159.666 8.19043 162.409 8.19043C166.714 8.19043 169.15 11.0847 169.15 15.6939V27.5024H163.588V16.9889C163.588 14.6655 162.522 13.2547 160.578 13.2547C158.635 13.2547 157.38 14.7785 157.34 17.3308V27.5024H151.777V17.0643C151.777 14.6251 150.749 13.2547 148.805 13.2547C146.861 13.2547 145.528 14.8539 145.528 17.4439V27.4997L145.531 27.5051Z" fill="#7962FE"></path><path d="M174.944 21.2559C176.81 21.2559 178.334 22.7797 178.334 24.6078C178.334 26.4358 176.885 27.9597 174.944 27.9597C173.003 27.9597 171.555 26.4735 171.555 24.6078C171.555 22.742 173.041 21.2559 174.944 21.2559Z" fill="#7962FE"></path><path d="M205.567 6.47475C203.739 6.47475 202.328 4.95092 202.328 3.23592C202.328 1.52091 203.739 -0.00292969 205.567 -0.00292969C207.395 -0.00292969 208.806 1.52091 208.806 3.23592C208.806 4.95092 207.395 6.47475 205.567 6.47475ZM202.786 27.5044V8.68515H208.348V27.5044H202.786Z" fill="#7962FE"></path></g></g><defs><radialGradient id="paint0_radial_7869_24215" cx="0" cy="0" r="1" gradientUnits="userSpaceOnUse" gradientTransform="translate(26.9494 14.3366) scale(8.63961 16.2334)"><stop stop-color="#684BFE"></stop><stop offset="1" stop-color="#05E5AD"></stop></radialGradient><radialGradient id="paint1_radial_7869_24215" cx="0" cy="0" r="1" gradientUnits="userSpaceOnUse" gradientTransform="translate(22.6963 14.4747) scale(16.7307 19.5202)"><stop stop-color="#684BFE"></stop><stop offset="1" stop-color="#05E5AD"></stop></radialGradient><clipPath id="clip0_7869_24215"><rect width="208.809" height="28" fill="white"></rect></clipPath></defs></svg>