<svg width="152" height="52" viewBox="0 0 152 52" fill="none" xmlns="http://www.w3.org/2000/svg">
<path d="M63.7624 34.8316C62.6657 34.8316 61.6742 34.6457 60.7878 34.2738C59.9164 33.9019 59.2253 33.3664 58.7145 32.6673C58.2037 31.9681 57.9408 31.1425 57.9258 30.1905H61.3061C61.3511 30.8302 61.5765 31.3359 61.9821 31.7078C62.4028 32.0797 62.9737 32.2656 63.6948 32.2656C64.431 32.2656 65.0094 32.0946 65.43 31.7524C65.8507 31.3954 66.061 30.9343 66.061 30.369C66.061 29.9079 65.9183 29.5286 65.6329 29.2311C65.3474 28.9336 64.9868 28.703 64.5512 28.5394C64.1305 28.3609 63.5446 28.1675 62.7934 27.9592C61.7718 27.6617 60.938 27.3717 60.292 27.089C59.661 26.7915 59.1126 26.3527 58.6469 25.7726C58.1962 25.1776 57.9709 24.3892 57.9709 23.4074C57.9709 22.4852 58.2037 21.6819 58.6694 20.9976C59.1352 20.3134 59.7887 19.7927 60.63 19.4357C61.4713 19.0638 62.4328 18.8779 63.5145 18.8779C65.1371 18.8779 66.4516 19.2721 67.4582 20.0605C68.4798 20.834 69.0432 21.9199 69.1484 23.3182H65.6779C65.6479 22.7827 65.415 22.3438 64.9793 22.0017C64.5587 21.6447 63.9953 21.4662 63.2892 21.4662C62.6732 21.4662 62.1774 21.6224 61.8019 21.9348C61.4413 22.2471 61.261 22.7008 61.261 23.2959C61.261 23.7124 61.3962 24.0619 61.6666 24.3446C61.9521 24.6123 62.2976 24.8354 62.7033 25.0139C63.1239 25.1776 63.7098 25.371 64.461 25.5941C65.4826 25.8916 66.3164 26.1891 66.9624 26.4866C67.6085 26.7841 68.1643 27.2304 68.6301 27.8254C69.0958 28.4204 69.3286 29.2013 69.3286 30.1682C69.3286 31.0012 69.1108 31.7747 68.6751 32.4888C68.2394 33.2028 67.6009 33.7755 66.7596 34.2068C65.9183 34.6234 64.9192 34.8316 63.7624 34.8316Z" fill="#141414"/>
<path d="M73.6639 20.8414C73.108 20.8414 72.6423 20.6704 72.2667 20.3282C71.9061 19.9712 71.7258 19.5324 71.7258 19.0118C71.7258 18.4911 71.9061 18.0598 72.2667 17.7176C72.6423 17.3606 73.108 17.1821 73.6639 17.1821C74.2197 17.1821 74.678 17.3606 75.0385 17.7176C75.4141 18.0598 75.6019 18.4911 75.6019 19.0118C75.6019 19.5324 75.4141 19.9712 75.0385 20.3282C74.678 20.6704 74.2197 20.8414 73.6639 20.8414ZM75.2188 22.3141V34.6754H72.0639V22.3141H75.2188Z" fill="#141414"/>
<path d="M77.5246 28.4501C77.5246 27.2006 77.7725 26.0924 78.2683 25.1255C78.7791 24.1586 79.4702 23.4149 80.3415 22.8942C81.2129 22.3736 82.1819 22.1133 83.2486 22.1133C84.0599 22.1133 84.8336 22.2918 85.5697 22.6488C86.3059 22.9909 86.8918 23.452 87.3275 24.0322V18.1639H90.5275V34.6754H87.3275V32.8458C86.9369 33.4556 86.3885 33.9465 85.6824 34.3184C84.9763 34.6903 84.1575 34.8762 83.2261 34.8762C82.1744 34.8762 81.2129 34.6085 80.3415 34.073C79.4702 33.5375 78.7791 32.7863 78.2683 31.8194C77.7725 30.8376 77.5246 29.7145 77.5246 28.4501ZM87.35 28.4948C87.35 27.7361 87.1998 27.089 86.8993 26.5535C86.5989 26.0031 86.1932 25.5866 85.6824 25.304C85.1716 25.0065 84.6233 24.8578 84.0373 24.8578C83.4514 24.8578 82.9106 24.9991 82.4148 25.2817C81.919 25.5643 81.5134 25.9808 81.1979 26.5312C80.8974 27.0667 80.7472 27.7064 80.7472 28.4501C80.7472 29.1939 80.8974 29.8484 81.1979 30.4137C81.5134 30.964 81.919 31.388 82.4148 31.6855C82.9256 31.983 83.4664 32.1317 84.0373 32.1317C84.6233 32.1317 85.1716 31.9904 85.6824 31.7078C86.1932 31.4103 86.5989 30.9938 86.8993 30.4583C87.1998 29.9079 87.35 29.2534 87.35 28.4948Z" fill="#141414"/>
<path d="M105.215 28.227C105.215 28.6733 105.184 29.0749 105.124 29.4319H95.9976C96.0727 30.3244 96.3882 31.0235 96.9441 31.5293C97.4999 32.0351 98.1835 32.2879 98.9948 32.2879C100.167 32.2879 101 31.7896 101.496 30.793H104.899C104.538 31.983 103.847 32.9648 102.826 33.7383C101.804 34.4969 100.55 34.8762 99.0624 34.8762C97.8605 34.8762 96.7788 34.6159 95.8173 34.0953C94.8708 33.5598 94.1272 32.8086 93.5863 31.8417C93.0605 30.8748 92.7976 29.7591 92.7976 28.4948C92.7976 27.2155 93.0605 26.0924 93.5863 25.1255C94.1121 24.1586 94.8483 23.4149 95.7948 22.8942C96.7413 22.3736 97.8305 22.1133 99.0624 22.1133C100.249 22.1133 101.308 22.3662 102.24 22.8719C103.186 23.3777 103.915 24.0991 104.426 25.0363C104.952 25.9585 105.215 27.0221 105.215 28.227ZM101.947 27.3345C101.932 26.5312 101.639 25.8916 101.068 25.4156C100.497 24.9247 99.7986 24.6793 98.9723 24.6793C98.191 24.6793 97.53 24.9173 96.9892 25.3933C96.4633 25.8544 96.1403 26.5015 96.0201 27.3345H101.947Z" fill="#141414"/>
<path d="M114.909 34.6754L110.672 29.4096V34.6754H107.517V18.1639H110.672V27.5576L114.864 22.3141H118.965L113.467 28.5171L119.01 34.6754H114.909Z" fill="#141414"/>
<path d="M122.278 20.8414C121.722 20.8414 121.256 20.6704 120.88 20.3282C120.52 19.9712 120.34 19.5324 120.34 19.0118C120.34 18.4911 120.52 18.0598 120.88 17.7176C121.256 17.3606 121.722 17.1821 122.278 17.1821C122.834 17.1821 123.292 17.3606 123.652 17.7176C124.028 18.0598 124.216 18.4911 124.216 19.0118C124.216 19.5324 124.028 19.9712 123.652 20.3282C123.292 20.6704 122.834 20.8414 122.278 20.8414ZM123.833 22.3141V34.6754H120.678V22.3141H123.833Z" fill="#141414"/>
<path d="M126.138 28.4948C126.138 27.2155 126.401 26.0998 126.927 25.1478C127.453 24.1809 128.182 23.4372 129.113 22.9165C130.045 22.381 131.111 22.1133 132.313 22.1133C133.86 22.1133 135.137 22.5 136.144 23.2735C137.166 24.0322 137.849 25.1032 138.195 26.4866H134.792C134.612 25.9511 134.304 25.5346 133.868 25.2371C133.447 24.9247 132.922 24.7685 132.291 24.7685C131.389 24.7685 130.676 25.0958 130.15 25.7503C129.624 26.3899 129.361 27.3047 129.361 28.4948C129.361 29.6699 129.624 30.5847 130.15 31.2392C130.676 31.8789 131.389 32.1987 132.291 32.1987C133.568 32.1987 134.401 31.6334 134.792 30.5029H138.195C137.849 31.8417 137.166 32.9053 136.144 33.6937C135.122 34.482 133.845 34.8762 132.313 34.8762C131.111 34.8762 130.045 34.6159 129.113 34.0953C128.182 33.5598 127.453 32.816 126.927 31.864C126.401 30.8971 126.138 29.774 126.138 28.4948Z" fill="#141414"/>
<path d="M147.898 34.6754L143.661 29.4096V34.6754H140.506V18.1639H143.661V27.5576L147.853 22.3141H151.954L146.455 28.5171L151.999 34.6754H147.898Z" fill="#141414"/>
<g filter="url(#filter0_d_11366_12729)">
<rect x="5" y="5" width="42" height="42" rx="8.24808" fill="white"/>
<g clip-path="url(#clip0_11366_12729)">
<path d="M26.0063 13.1279L33.9999 17.2558V9L26.0063 13.1279Z" fill="#FFB038"/>
<path fill-rule="evenodd" clip-rule="evenodd" d="M33.9999 17.2558L26.0063 21.3722V13.1279L33.9999 17.2558Z" fill="#F86141"/>
<path d="M18 25.5L26.0065 29.6278V21.3721L18 25.5Z" fill="#F58E78"/>
<path d="M18 17.2558L26.0065 21.3722V13.1279L18 17.2558Z" fill="#4F2F8D"/>
<path d="M26.0065 21.3717L18 25.4996V17.2554L26.0065 21.3717Z" fill="#DF1722"/>
<path d="M26.0063 29.6279L33.9999 33.7558V25.5L26.0063 29.6279Z" fill="#BB1714"/>
<path d="M33.9999 33.7553L26.0063 37.8832V29.6274L33.9999 33.7553Z" fill="#ED3330"/>
<path d="M33.9999 25.5L26.0063 29.6278V21.3721L33.9999 25.5Z" fill="#ED3330"/>
<path d="M18 33.7553L26.0065 37.8832V29.6274L18 33.7553Z" fill="#9B85C5"/>
<path d="M26.0065 37.8837L18 42.0001V33.7559L26.0065 37.8837Z" fill="#4F2F8D"/>
</g>
</g>
<defs>
<filter id="filter0_d_11366_12729" x="0.286811" y="0.286811" width="51.4264" height="51.4264" filterUnits="userSpaceOnUse" color-interpolation-filters="sRGB">
<feFlood flood-opacity="0" result="BackgroundImageFix"/>
<feColorMatrix in="SourceAlpha" type="matrix" values="0 0 0 0 0 0 0 0 0 0 0 0 0 0 0 0 0 0 127 0" result="hardAlpha"/>
<feOffset/>
<feGaussianBlur stdDeviation="2.35659"/>
<feComposite in2="hardAlpha" operator="out"/>
<feColorMatrix type="matrix" values="0 0 0 0 0 0 0 0 0 0 0 0 0 0 0 0 0 0 0.11 0"/>
<feBlend mode="normal" in2="BackgroundImageFix" result="effect1_dropShadow_11366_12729"/>
<feBlend mode="normal" in="SourceGraphic" in2="effect1_dropShadow_11366_12729" result="shape"/>
</filter>
<clipPath id="clip0_11366_12729">
<rect width="16" height="33" fill="white" transform="translate(18 9)"/>
</clipPath>
</defs>
</svg>
